@startuml
!include style.puml
skinparam ClassFontColor #000000
skinparam ClassBorderColor #000000

title Initial state

package State {
    class State1 as "__ta0:TAssist__"
    class Student1 as "__s1:Student__"
    class ClassGroup1 as "__c1:ClassGroup__"
    class Module1 as "__m1:Module__"
}

State1 *--> Student1
State1 *--> ClassGroup1
Module1 *--> ClassGroup1
State1 *--> Module1

@end
