@startuml
 skinparam backgroundColor #ffffff
 skinparam classAttributeIconSize 0
 hide circle

 abstract class "{abstract}\nCommand" {
     + {abstract} execute(model : Model) : CommandResult
 }

 interface Model <<interface>> {
 }

 class ModelManager implements Model{
     -addressBook : AddressBook
     +setAddressBook(new AddressBook())
 }

 class ClearCommand {
     /' Fields '/

     /' Methods '/
     + execute(model : Model) : CommandResult
 }

 ModelManager <-- ClearCommand
 "{abstract}\nCommand" <|-- ClearCommand

 @enduml
